<svg viewBox="0 0 241.37 30.47" xmlns="http://www.w3.org/2000/svg" xmlns:xlink="http://www.w3.org/1999/xlink" id="metki" overflow="hidden"><defs></defs><g><path d="M11.27 11.24 13.71 11.24 13.71 16.1 18.22 11.24 21.17 11.24 16.65 15.95 21.38 22.35 18.44 22.35 15 17.62 13.71 18.95 13.71 22.35 11.27 22.35 11.27 11.24Z" fill="#FFFFFF"/><path d="M21.94 16.8C21.94 13.64 24.43 11.06 27.86 11.06 31.29 11.06 33.75 13.61 33.75 16.8 33.75 19.99 31.26 22.55 27.83 22.55 24.4 22.55 21.94 20 21.94 16.8ZM31.19 16.8C31.19 14.9 29.79 13.31 27.83 13.31 25.87 13.31 24.5 14.86 24.5 16.8 24.5 18.74 25.9 20.29 27.86 20.29 29.82 20.29 31.19 18.73 31.19 16.8Z" fill="#FFFFFF"/><path d="M36.03 16.27 40.92 16.27 40.92 18.59 36.03 18.59 36.03 16.27Z" fill="#FFFFFF"/><path d="M45.9 15.39 48.84 15.39C51.35 15.39 52.74 16.76 52.74 18.83 52.74 21.1 51.17 22.35 48.6 22.35L43.46 22.35 43.46 11.24 51.98 11.24 51.98 13.45 45.9 13.45 45.9 15.39ZM45.9 17.42 45.9 20.15 48.6 20.15C49.74 20.15 50.3 19.71 50.3 18.74 50.3 17.88 49.74 17.42 48.59 17.42L45.91 17.42Z" fill="#FFFFFF"/><path d="M54.55 16.8C54.55 13.64 57.04 11.06 60.47 11.06 63.9 11.06 66.36 13.61 66.36 16.8 66.36 19.99 63.87 22.55 60.44 22.55 57.01 22.55 54.55 20 54.55 16.8ZM63.8 16.8C63.8 14.9 62.4 13.31 60.44 13.31 58.48 13.31 57.11 14.86 57.11 16.8 57.11 18.74 58.51 20.29 60.47 20.29 62.43 20.29 63.8 18.73 63.8 16.8Z" fill="#FFFFFF"/><path d="M68.75 11.24 71.19 11.24 71.19 15.64 75.7 15.64 75.7 11.24 78.14 11.24 78.14 22.35 75.7 22.35 75.7 17.89 71.19 17.89 71.19 22.35 68.75 22.35 68.75 11.24Z" fill="#FFFFFF"/><path d="M80.02 20.15 81.07 20.15C81.9 18.23 82.29 16.34 82.29 12.55L82.29 11.25 90.37 11.25 90.37 20.15 91.7 20.15 91.38 24.67 89.33 24.67 89.33 22.35 82.38 22.35 82.22 24.67 80.01 24.67 80.01 20.15ZM84.64 13.45 84.64 14.58C84.64 16.93 84.27 18.61 83.64 20.15L87.92 20.15 87.92 13.45 84.64 13.45Z" fill="#FFFFFF"/><path d="M103.38 22.35 100.97 22.35 100.97 15.07 96.11 22.35 93.81 22.35 93.81 11.24 96.22 11.24 96.22 18.52 101.11 11.24 103.38 11.24 103.38 22.35Z" fill="#FFFFFF"/><path d="M106.36 11.24 108.8 11.24 108.8 15.64 113.31 15.64 113.31 11.24 115.75 11.24 115.75 22.35 113.31 22.35 113.31 17.89 108.8 17.89 108.8 22.35 106.36 22.35 106.36 11.24Z" fill="#FFFFFF"/><path d="M121.19 22.35 118.75 22.35 118.75 11.24 126.51 11.24 126.51 13.45 121.19 13.45 121.19 22.35Z" fill="#FFFFFF"/></g><g><path d="M136.55 12.39 132.82 12.39 132.82 11.25 141.55 11.25 141.55 12.39 137.82 12.39 137.82 22.36 136.55 22.36 136.55 12.39Z" fill="#FFFFFF"/><path d="M144.09 11.24 152.12 11.24 152.12 12.38 145.34 12.38 145.34 16.17 151.4 16.17 151.4 17.31 145.34 17.31 145.34 21.2 152.2 21.2 152.2 22.34 144.09 22.34 144.09 11.24Z" fill="#FFFFFF"/><path d="M158.66 16.69 154.55 11.25 156.03 11.25 159.44 15.79 162.82 11.25 164.28 11.25 160.17 16.68 164.44 22.36 162.95 22.36 159.4 17.58 155.85 22.36 154.41 22.36 158.68 16.69Z" fill="#FFFFFF"/><path d="M166.94 11.24 168.19 11.24 168.19 16.18 174.6 16.18 174.6 11.24 175.85 11.24 175.85 22.35 174.6 22.35 174.6 17.35 168.19 17.35 168.19 22.35 166.94 22.35 166.94 11.24Z" fill="#FFFFFF"/><path d="M178.72 16.8C178.72 13.74 181.02 11.06 184.4 11.06 187.78 11.06 190.05 13.71 190.05 16.8 190.05 19.89 187.75 22.55 184.37 22.55 180.99 22.55 178.72 19.9 178.72 16.8ZM188.75 16.8C188.75 14.28 186.91 12.21 184.37 12.21 181.83 12.21 180.02 14.24 180.02 16.8 180.02 19.36 181.86 21.39 184.4 21.39 186.94 21.39 188.75 19.36 188.75 16.8Z" fill="#FFFFFF"/><path d="M190.97 22.21 191.22 21.19C191.39 21.27 191.85 21.35 192.2 21.35 193.06 21.35 194.5 20.83 194.5 13.26L194.5 11.24 201.69 11.24 201.69 22.35 200.44 22.35 200.44 12.39 195.71 12.39 195.71 13.6C195.71 21.39 194.12 22.49 192.41 22.49 191.92 22.49 191.25 22.33 190.97 22.22Z" fill="#FFFFFF"/><path d="M204.52 16.8C204.52 13.74 206.82 11.06 210.2 11.06 213.58 11.06 215.85 13.71 215.85 16.8 215.85 19.89 213.55 22.55 210.17 22.55 206.79 22.55 204.52 19.9 204.52 16.8ZM214.55 16.8C214.55 14.28 212.71 12.21 210.17 12.21 207.63 12.21 205.82 14.24 205.82 16.8 205.82 19.36 207.66 21.39 210.2 21.39 212.74 21.39 214.55 19.36 214.55 16.8Z" fill="#FFFFFF"/><path d="M218.73 11.24 225.82 11.24 225.82 12.38 219.98 12.38 219.98 22.35 218.73 22.35 218.73 11.24Z" fill="#FFFFFF"/><path d="M228.34 11.24 229.59 11.24 229.59 22.35 228.34 22.35 228.34 11.24Z" fill="#FFFFFF"/><path d="M235.58 17.89C233.8 17.57 232.55 16.45 232.55 14.59 232.55 13.73 232.84 12.91 233.39 12.37 234.07 11.69 235.2 11.24 236.63 11.24L241.38 11.24 241.38 22.35 240.13 22.35 240.13 18.1 236.94 18.1 233.64 22.35 232.12 22.35 235.6 17.89ZM240.12 17.03 240.12 12.36 236.71 12.36C234.89 12.36 233.81 13.26 233.81 14.68 233.81 16.1 235.02 17.03 236.71 17.03L240.12 17.03Z" fill="#FFFFFF"/></g><path d="M15.46 28.58C15.58 28.58 15.73 28.61 15.82 28.55 16.14 28.37 16.47 28.32 16.86 28.42 16.92 28.27 16.99 28.14 17.04 28 17.36 27.12 17.67 26.24 17.99 25.36 18.07 25.15 18.09 24.97 17.95 24.76 17.71 24.39 17.73 23.99 18.01 23.62 18.25 23.3 18.7 23.16 19.12 23.3 19.53 23.44 19.76 23.75 19.79 24.17 19.8 24.33 19.79 24.47 19.94 24.58 20.8 25.24 21.64 25.91 22.52 26.59 23.11 26.05 23.71 26.03 24.32 26.58 24.58 26.39 24.84 26.21 25.09 26.03 25.11 26.04 25.13 26.06 25.15 26.07 25.04 26.17 24.93 26.28 24.82 26.38 24.69 26.49 24.56 26.6 24.42 26.73 24.57 27.27 24.54 27.77 24.02 28.1 23.53 28.42 23.06 28.28 22.63 27.96 22.17 28.18 21.74 28.4 21.3 28.61 20.18 29.13 19.01 29.49 17.79 29.7 17.59 29.73 17.46 29.82 17.34 29.98 16.91 30.56 16.24 30.62 15.71 30.12 15.54 29.96 15.38 29.91 15.16 29.92 12.8 29.93 10.57 29.38 8.46 28.34 8.3 28.26 8.1 28.24 7.92 28.25 7.26 28.29 6.74 28 6.52 27.38 6.44 27.16 6.32 27.01 6.14 26.87 4.03 25.24 2.47 23.2 1.48 20.75 1.38 20.5 1.26 20.35 0.98 20.27 0.02 19.99-0.29 18.88 0.38 18.14 0.57 17.93 0.63 17.74 0.59 17.48 0.29 15.59 0.4 13.73 0.86 11.88 0.91 11.67 0.88 11.51 0.75 11.32 0.23 10.51 0.57 9.6 1.51 9.31 1.71 9.25 1.83 9.16 1.92 8.97 2.35 8.08 2.87 7.25 3.48 6.47 3.6 6.31 3.67 6.18 3.58 5.97 3.36 5.45 3.45 4.96 3.86 4.55 4.28 4.13 4.78 4.05 5.34 4.25 5.4 4.27 5.46 4.29 5.51 4.31 5.99 3.96 6.45 3.6 6.93 3.28 8.43 2.27 10.07 1.56 11.84 1.16 12.07 1.1 12.21 1.01 12.32 0.78 12.76-0.12 13.88-0.26 14.55 0.51 14.73 0.72 14.9 0.78 15.15 0.78 16.48 0.75 17.79 0.94 19.08 1.28 19.27 1.33 19.43 1.33 19.63 1.26 20.1 1.1 20.43 1.22 20.69 1.63 20.8 1.8 20.93 1.9 21.11 1.98 22.53 2.58 23.81 3.39 24.96 4.41 25.14 4.57 25.29 4.64 25.54 4.53 25.99 4.34 26.41 4.46 26.75 4.81 27.1 5.18 27.12 5.61 26.95 6.07 26.9 6.19 26.9 6.33 26.87 6.46L26.88 6.46C26.76 6.47 26.63 6.48 26.52 6.53 25.75 6.85 25.25 6.67 24.85 5.93 24.84 5.9 24.81 5.88 24.75 5.82 23.06 5.96 21.34 6.09 19.68 6.22 19.41 6.67 19.16 7.08 18.86 7.58 18.96 7.9 19.09 8.34 19.23 8.81 19.4 8.82 19.55 8.82 19.7 8.85 20.16 8.94 20.47 9.35 20.41 9.81 20.36 10.25 19.98 10.57 19.53 10.56 19.08 10.55 18.73 10.22 18.69 9.77 18.66 9.45 18.82 9.2 19.08 8.95 18.87 8.58 18.66 8.2 18.45 7.82 18.35 7.64 18.19 7.68 18.03 7.69 17.58 7.69 17.19 7.56 16.87 7.24 16.45 6.82 16.3 6.32 16.46 5.74 16.51 5.58 16.58 5.42 16.65 5.21 15.9 4.32 15.12 3.4 14.4 2.54 13.92 2.59 13.5 2.64 12.99 2.7 12.47 3.86 11.91 5.11 11.35 6.37 11.42 6.49 11.49 6.61 11.56 6.73 11.88 7.37 11.6 8.1 10.95 8.36 10.29 8.63 9.55 8.31 9.36 7.63 9.27 7.3 9.1 7.15 8.79 7.04 7.91 6.72 7.03 6.37 6.14 6.03 6.01 6.19 5.89 6.33 5.76 6.47 5.5 6.73 5.17 6.83 4.81 6.83 4.62 6.83 4.52 6.9 4.42 7.03 3.85 7.78 3.36 8.58 2.97 9.43 2.92 9.54 2.9 9.72 2.96 9.81 3.31 10.34 3.27 10.86 3 11.43 3.59 12.19 4.19 12.95 4.77 13.7 5.48 13.55 5.84 13.64 6.07 14.03 6.3 14.43 6.22 14.76 5.73 15.28 5.76 15.37 5.79 15.47 5.84 15.57 6.69 17.44 7.55 19.31 8.4 21.19 8.52 21.47 8.66 21.62 9.01 21.65 9.77 21.71 10.33 22.48 10.16 23.23 10.09 23.55 10.19 23.71 10.4 23.9 11.99 25.32 13.58 26.74 15.16 28.17 15.31 28.3 15.42 28.47 15.55 28.62 13.58 27.13 11.61 25.63 9.65 24.14 9.36 24.24 9.09 24.32 8.8 24.42 8.68 24.85 8.55 25.3 8.42 25.77 9.09 26.16 9.26 26.76 9.12 27.45 11.13 28.51 13.22 29.1 15.49 29.2 15.49 28.97 15.83 28.82 15.53 28.6M4.74 15.22C3.97 16.24 3.2 17.24 2.43 18.25 2.72 18.73 2.7 19.22 2.52 19.71 2.62 19.77 2.7 19.82 2.78 19.86 4.32 20.53 5.86 21.19 7.41 21.86 7.47 21.88 7.52 21.91 7.59 21.93 7.77 21.97 7.86 21.88 7.82 21.7 7.8 21.61 7.76 21.52 7.73 21.44 7.27 20.12 6.81 18.8 6.35 17.48 6.09 16.75 5.83 16.02 5.57 15.29 5.3 15.27 5.05 15.25 4.75 15.23M12.22 1.89C12.16 1.9 12.1 1.91 12.04 1.92 9.98 2.46 8.15 3.41 6.5 4.74 6.14 5.03 6.03 5.32 6.17 5.78 7.17 6.02 8.19 6.26 9.22 6.51 9.39 6.55 9.49 6.47 9.59 6.37 9.8 6.16 10.07 6.05 10.35 6.05 10.61 6.05 10.74 5.94 10.87 5.73 11.46 4.74 12.07 3.76 12.66 2.77 12.71 2.68 12.75 2.58 12.79 2.5 12.59 2.28 12.41 2.09 12.23 1.89M18.71 4.7C18.91 4.91 19.1 5.05 19.2 5.23 19.35 5.51 19.56 5.56 19.85 5.57 20.98 5.59 22.12 5.63 23.25 5.66 23.73 5.67 24.22 5.66 24.68 5.66 24.78 5.35 24.88 5.06 24.99 4.75 23.73 3.71 22.33 2.91 20.82 2.36 20.6 2.54 20.44 2.73 20.24 2.82 20.04 2.91 19.79 2.9 19.54 2.93 19.27 3.52 18.99 4.11 18.71 4.7M8.01 25.54C8.05 25.14 8.1 24.7 8.15 24.25 7.44 23.87 7.21 23.29 7.33 22.58 6.25 21.86 2.83 20.03 2.48 20 3.4 22.37 4.85 24.35 6.77 25.91 7.22 25.78 7.59 25.67 8.01 25.55M17.53 29.12C19.25 28.95 20.86 28.48 22.39 27.73L22.39 26.71C21.55 26.24 20.7 25.77 19.85 25.29 19.58 25.13 19.35 25.06 19.02 25.19 18.79 25.28 18.65 25.38 18.55 25.58 18.37 25.93 18.18 26.27 18 26.61 17.67 27.23 17.34 27.85 17.02 28.45 17.19 28.67 17.34 28.87 17.53 29.11M2.54 11.78C2.12 11.78 1.95 11.97 1.88 12.33 1.53 14.04 1.48 15.76 1.79 17.48 1.81 17.59 1.86 17.69 1.92 17.86 2.86 16.9 3.73 15.99 4.63 15.07 4.28 14.62 4.34 14.18 4.62 13.75 3.9 13.07 3.21 12.42 2.54 11.79M18.92 1.8C17.62 1.52 16.24 1.35 14.88 1.49 14.72 1.8 14.59 2.06 14.44 2.36 15.31 3.16 16.19 3.97 17.03 4.74 17.36 4.67 17.62 4.62 17.88 4.55 17.99 4.52 18.14 4.49 18.2 4.4 18.61 3.87 19 3.33 19.35 2.87 19.2 2.5 19.08 2.2 18.92 1.81" fill="#FFFFFF"/></svg>